<svg width="219.92" height="288.08" xmlns="http://www.w3.org/2000/svg" xml:space="preserve" version="1.1">

 <g>
  <title>Layer 1</title>
  <path id="svg_1" stroke-miterlimit="10" stroke-linejoin="round" stroke-width="4" stroke="#000" fill="#b5b5b6" d="m215.92,286.08l-211.92,0l-2,-284.08l215.92,0l-2,284.08z" class="st0"/>
  <path id="svg_2" stroke-miterlimit="10" stroke-linejoin="round" stroke-width="4" stroke="#000" fill="#b5b5b6" d="m45.31,266.97l-41.31,19.11l-2,-284.08l43.31,100l0,164.97zm129.3,0l41.31,19.11l2,-284.08l-43.31,100l0,164.97z" class="st0"/>
  <path id="svg_3" stroke-miterlimit="10" stroke-linejoin="round" stroke-width="4" stroke="#f4f4f5" fill="#b5b5b6" d="m118.03,125.47l-16.15,0c-2.23,0 -4.03,-1.8 -4.03,-4.03l0,-9.78c0,-2.23 1.8,-4.03 4.03,-4.03l16.15,0c2.23,0 4.03,1.8 4.03,4.03l0,9.78c0,2.23 -1.8,4.03 -4.03,4.03z"/>
  <path id="svg_4" stroke-miterlimit="10" stroke-linejoin="round" stroke-width="4" stroke="#000" fill="#b5b5b6" d="m45.31,266.97l129.3,0m43.31,-264.97l-215.92,0l44.64,27.64l116.65,2l54.63,-29.64z" class="st0"/>
  <line stroke-linejoin="round" id="svg_5" y2="101.44" x2="173.96002" y1="100.44" x1="44.96002" stroke-width="4" stroke="#000" fill="none"/>
 </g>
</svg>